<svg width="48" height="48" viewBox="0 0 48 48" fill="none" xmlns="http://www.w3.org/2000/svg">
  <mask id="mask0_782_4400" style="mask-type:luminance" maskUnits="userSpaceOnUse" x="0" y="0" width="48" height="48">
  <path d="M1 47V1H47V47H1Z" fill="white" stroke="white" stroke-width="2"/>
  </mask>
  <g mask="url(#mask0_782_4400)">
  <mask id="mask1_782_4400" style="mask-type:luminance" maskUnits="userSpaceOnUse" x="0" y="0" width="48" height="48">
  <path d="M1 1H47V47.0001H1V1Z" fill="white" stroke="var(--tw-badge-color)" stroke-width="2"/>
  </mask>
  <g mask="url(#mask1_782_4400)">
  <path d="M24 1.4209V3.65834" stroke="var(--tw-badge-color)" stroke-width="2" stroke-miterlimit="10" stroke-linecap="round" stroke-linejoin="round"/>
  <path d="M47.0637 9.81104L44.9414 11.3463" stroke="var(--tw-badge-color)" stroke-width="2" stroke-miterlimit="10" stroke-linecap="round" stroke-linejoin="round"/>
  <path d="M0.9375 9.81104L3.05981 11.3463" stroke="var(--tw-badge-color)" stroke-width="2" stroke-miterlimit="10" stroke-linecap="round" stroke-linejoin="round"/>
  </g>
  <path d="M24 8.31233L31.5305 20.6518L37.926 8.27539" stroke="var(--tw-badge-color)" stroke-width="2" stroke-miterlimit="10" stroke-linecap="round" stroke-linejoin="round"/>
  <mask id="mask2_782_4400" style="mask-type:luminance" maskUnits="userSpaceOnUse" x="0" y="0" width="48" height="48">
  <path d="M1 1H47V47.0001H1V1Z" fill="white" stroke="var(--tw-badge-color)" stroke-width="2"/>
  </mask>
  <g mask="url(#mask2_782_4400)">
  <path d="M16.422 20.6519L24.0005 46.3608L31.5792 20.6519H31.579" stroke="var(--tw-badge-color)" stroke-width="2" stroke-miterlimit="10" stroke-linecap="round" stroke-linejoin="round"/>
  </g>
  <path d="M24.0001 8.31233L16.4697 20.6518L10.0742 8.27539" stroke="var(--tw-badge-color)" stroke-width="2" stroke-miterlimit="10" stroke-linecap="round" stroke-linejoin="round"/>
  <mask id="mask3_782_4400" style="mask-type:luminance" maskUnits="userSpaceOnUse" x="0" y="0" width="48" height="48">
  <path d="M1 1H47V47.0001H1V1Z" fill="white" stroke="var(--tw-badge-color)" stroke-width="2"/>
  </mask>
  <g mask="url(#mask3_782_4400)">
  <path d="M37.5421 30.151L45.3733 20.6515L38.1078 8.09375H9.89045L2.625 20.6515L23.9992 46.5788L32.2883 36.524" stroke="var(--tw-badge-color)" stroke-width="2" stroke-miterlimit="10" stroke-linecap="round" stroke-linejoin="round"/>
  </g>
  <path d="M33.5681 32.2112L35.8335 26.4541L38.0986 32.2112L43.8425 34.4819L38.0986 36.7523L35.8335 42.5096L33.5681 36.7523L27.8242 34.4819L33.5681 32.2112Z" stroke="var(--tw-badge-color)" stroke-width="2" stroke-miterlimit="10" stroke-linecap="round" stroke-linejoin="round"/>
  <mask id="mask4_782_4400" style="mask-type:luminance" maskUnits="userSpaceOnUse" x="0" y="0" width="48" height="48">
  <path d="M1 1H47V47.0001H1V1Z" fill="white" stroke="var(--tw-badge-color)" stroke-width="2"/>
  </mask>
  <g mask="url(#mask4_782_4400)">
  <path d="M28.2344 20.6519H44.7281" stroke="var(--tw-badge-color)" stroke-width="2" stroke-miterlimit="10" stroke-linecap="round" stroke-linejoin="round"/>
  <path d="M19.7602 20.6519H3.47266" stroke="var(--tw-badge-color)" stroke-width="2" stroke-miterlimit="10" stroke-linecap="round" stroke-linejoin="round"/>
  </g>
  </g>
</svg>