<svg width="48" height="48" viewBox="0 0 48 48" fill="none" xmlns="http://www.w3.org/2000/svg">
  <g clip-path="url(#clip0_782_4040)">
  <path d="M10.3984 21.1745V11.1938C10.3984 7.45508 13.4594 4.41664 17.2066 4.45321C20.8891 4.48977 23.8366 7.52258 23.8806 11.1966" stroke="var(--tw-badge-color)" stroke-width="2" stroke-miterlimit="10" stroke-linecap="round" stroke-linejoin="round"/>
  <path d="M8.69531 5.02331C10.5919 2.42643 13.6313 0.722992 17.0775 0.703305C22.89 0.669555 27.63 5.38893 27.63 11.1939" stroke="var(--tw-badge-color)" stroke-width="2" stroke-miterlimit="10" stroke-linecap="round" stroke-linejoin="round"/>
  <path d="M6.64844 21.1759V11.3106C6.64844 10.1341 6.83969 8.99969 7.195 7.9375" stroke="var(--tw-badge-color)" stroke-width="2" stroke-miterlimit="10" stroke-linecap="round" stroke-linejoin="round"/>
  <path d="M41.9227 29.9503C41.3817 28.9988 40.6992 28.1381 39.9023 27.3984" stroke="var(--tw-badge-color)" stroke-width="2" stroke-miterlimit="10" stroke-linecap="round" stroke-linejoin="round"/>
  <path d="M29.1094 25.1661H29.1103C30.2213 24.7723 31.4175 24.5586 32.6634 24.5586C34.2844 24.5586 35.8219 24.9214 37.1981 25.5702" stroke="var(--tw-badge-color)" stroke-width="2" stroke-miterlimit="10" stroke-linecap="round" stroke-linejoin="round"/>
  <path d="M27.5625 24.7461C28.0931 24.8473 28.6106 24.988 29.1112 25.1652H29.1122C31.5403 26.0248 33.5625 27.7414 34.8178 29.9502" stroke="var(--tw-badge-color)" stroke-width="2" stroke-miterlimit="10" stroke-linecap="round" stroke-linejoin="round"/>
  <path d="M16.2969 29.9513C17.8747 27.1744 20.6656 25.1766 23.9487 24.6797" stroke="var(--tw-badge-color)" stroke-width="2" stroke-miterlimit="10" stroke-linecap="round" stroke-linejoin="round"/>
  <path d="M37.0045 19.9141L34.2344 22.6843" stroke="var(--tw-badge-color)" stroke-width="2" stroke-miterlimit="10" stroke-linecap="round" stroke-linejoin="round"/>
  <path d="M32.9969 17.4688L31.5859 21.1235" stroke="var(--tw-badge-color)" stroke-width="2" stroke-miterlimit="10" stroke-linecap="round" stroke-linejoin="round"/>
  <path d="M14.8125 19.9141L17.5826 22.6843" stroke="var(--tw-badge-color)" stroke-width="2" stroke-miterlimit="10" stroke-linecap="round" stroke-linejoin="round"/>
  <path d="M18.8203 17.4688L20.2313 21.1235" stroke="var(--tw-badge-color)" stroke-width="2" stroke-miterlimit="10" stroke-linecap="round" stroke-linejoin="round"/>
  <path d="M11.2196 21.1758H5.82831C5.16803 21.1758 4.63281 21.711 4.63281 22.3713V29.9528H12.4151V22.3713C12.4152 21.711 11.8799 21.1758 11.2196 21.1758Z" stroke="var(--tw-badge-color)" stroke-width="2" stroke-miterlimit="10" stroke-linecap="round" stroke-linejoin="round"/>
  <path d="M28.8844 15.2883H22.6289L23.8817 11.1953H27.6316L28.8844 15.2883Z" stroke="var(--tw-badge-color)" stroke-width="2" stroke-miterlimit="10" stroke-linecap="round" stroke-linejoin="round"/>
  <path d="M28.8844 15.2891V18.1011C28.8844 18.5428 28.5263 18.901 28.0845 18.901H23.4288C22.987 18.901 22.6289 18.5428 22.6289 18.1011V15.2891H28.8844Z" stroke="var(--tw-badge-color)" stroke-width="2" stroke-miterlimit="10" stroke-linecap="round" stroke-linejoin="round"/>
  <path d="M27.561 18.8984H23.9492V29.9507H27.561V18.8984Z" stroke="var(--tw-badge-color)" stroke-width="2" stroke-miterlimit="10" stroke-linecap="round" stroke-linejoin="round"/>
  <path d="M46.7385 34.5171H1.26112C0.952968 34.5171 0.703125 34.2673 0.703125 33.9591V30.5111C0.703125 30.203 0.952968 29.9531 1.26112 29.9531H46.7385C47.0467 29.9531 47.2965 30.203 47.2965 30.5111V33.9591C47.2965 34.2673 47.0467 34.5171 46.7385 34.5171Z" stroke="var(--tw-badge-color)" stroke-width="2" stroke-miterlimit="10" stroke-linecap="round" stroke-linejoin="round"/>
  <path d="M2.99219 34.5156L5.14469 43.975C5.58625 45.9175 7.31406 47.2966 9.30625 47.2966H15.9428" stroke="var(--tw-badge-color)" stroke-width="2" stroke-miterlimit="10" stroke-linecap="round" stroke-linejoin="round"/>
  <path d="M19.2227 47.2965H38.6954C40.6876 47.2965 42.4154 45.9175 42.8569 43.975L45.0094 34.5156" stroke="var(--tw-badge-color)" stroke-width="2" stroke-miterlimit="10" stroke-linecap="round" stroke-linejoin="round"/>
  </g>
  <defs>
  <clipPath id="clip0_782_4040">
  <rect width="48" height="48" fill="white"/>
  </clipPath>
  </defs>
</svg>