<svg width="48" height="48" viewBox="0 0 48 48" fill="none" xmlns="http://www.w3.org/2000/svg">
  <g clip-path="url(#clip0_782_4313)">
  <mask id="mask0_782_4313" style="mask-type:luminance" maskUnits="userSpaceOnUse" x="0" y="0" width="48" height="48">
  <path d="M0 3.8147e-06H48V48H0V3.8147e-06Z" fill="white"/>
  </mask>
  <g mask="url(#mask0_782_4313)">
  <path d="M45.2729 17.582H2.72656V10.6628H45.2729V17.582Z" stroke="var(--tw-badge-color)" stroke-width="2" stroke-miterlimit="10" stroke-linecap="round" stroke-linejoin="round"/>
  <path d="M28.1999 47.0625H42.8304V17.5807H5.16797V47.0625H19.955" stroke="var(--tw-badge-color)" stroke-width="2" stroke-miterlimit="10" stroke-linecap="round" stroke-linejoin="round"/>
  </g>
  <path d="M29.5391 32.2699L34.578 32.2734" stroke="var(--tw-badge-color)" stroke-width="2" stroke-miterlimit="10" stroke-linecap="round" stroke-linejoin="round"/>
  <path d="M24.0781 37.6893L24.087 42.7539" stroke="var(--tw-badge-color)" stroke-width="2" stroke-miterlimit="10" stroke-linecap="round" stroke-linejoin="round"/>
  <path d="M18.7124 32.2699L13.6602 32.2734" stroke="var(--tw-badge-color)" stroke-width="2" stroke-miterlimit="10" stroke-linecap="round" stroke-linejoin="round"/>
  <path d="M24.0781 26.8596L24.087 21.823" stroke="var(--tw-badge-color)" stroke-width="2" stroke-miterlimit="10" stroke-linecap="round" stroke-linejoin="round"/>
  <mask id="mask1_782_4313" style="mask-type:luminance" maskUnits="userSpaceOnUse" x="0" y="0" width="48" height="48">
  <path d="M0 3.8147e-06H48V48H0V3.8147e-06Z" fill="white"/>
  </mask>
  <g mask="url(#mask1_782_4313)">
  <path d="M14.7926 29.5251L21.3028 22.9593C22.8215 21.4278 25.2938 21.4168 26.8259 22.9347L33.4535 29.5005C34.9957 31.0284 34.9964 33.5207 33.4548 35.0492L26.8273 41.6214C25.2948 43.141 22.8204 43.1299 21.3016 41.5967L14.7912 35.0247C13.2827 33.5016 13.2831 31.0473 14.7926 29.5251Z" stroke="var(--tw-badge-color)" stroke-width="2" stroke-miterlimit="10" stroke-linecap="round" stroke-linejoin="round"/>
  <path d="M18.7109 32.2709L24.0766 26.8594L29.5391 32.2709L24.0766 37.6875L18.7109 32.2709Z" stroke="var(--tw-badge-color)" stroke-width="2" stroke-miterlimit="10" stroke-linecap="round" stroke-linejoin="round"/>
  <path d="M23.8809 5.44687V7.93031C23.8809 6.62625 22.8234 5.56875 21.5184 5.56875H21.3506C20.0465 5.56875 18.9889 6.62625 18.9889 7.93031C18.9889 9.34509 20.443 10.6641 21.8323 10.6641H20.2114C19.7015 10.6641 18.9617 10.4662 18.207 10.1137C16.3849 9.26137 14.7852 7.58053 14.7852 5.44687C14.7852 2.95781 16.8028 0.940312 19.2918 0.940312H19.3734C21.8624 0.940312 23.8809 2.95781 23.8809 5.44687Z" stroke="var(--tw-badge-color)" stroke-width="2" stroke-miterlimit="10" stroke-linecap="round" stroke-linejoin="round"/>
  <path d="M33.2127 5.44687C33.2127 6.74878 32.4537 8.18184 31.505 9.04378C30.9871 9.51431 30.3652 9.87188 29.7272 10.1529C29.1282 10.4168 28.4502 10.6641 27.7864 10.6641H25.9264C27.3027 10.6641 28.7698 9.32906 28.7698 7.93031C28.7698 6.62625 27.7123 5.56875 26.4083 5.56875H26.2405C24.9355 5.56875 23.8789 6.62625 23.8789 7.93031V5.44687C23.8789 2.95781 25.8964 0.940312 28.3855 0.940312H28.7061C31.1951 0.940312 33.2127 2.95781 33.2127 5.44687Z" stroke="var(--tw-badge-color)" stroke-width="2" stroke-miterlimit="10" stroke-linecap="round" stroke-linejoin="round"/>
  <path d="M19.3333 10.6641L12.1365 7.07334C9.46853 5.74219 6.33203 7.68253 6.33203 10.6641H19.3333Z" stroke="var(--tw-badge-color)" stroke-width="2" stroke-miterlimit="10" stroke-linecap="round" stroke-linejoin="round"/>
  <path d="M28.7188 10.6641L35.9156 7.07334C38.5835 5.74219 41.72 7.68253 41.72 10.6641H28.7188Z" stroke="var(--tw-badge-color)" stroke-width="2" stroke-miterlimit="10" stroke-linecap="round" stroke-linejoin="round"/>
  <path d="M23.8789 7.93031V10.6641" stroke="var(--tw-badge-color)" stroke-width="2" stroke-miterlimit="10" stroke-linecap="round" stroke-linejoin="round"/>
  <path d="M14.7905 29.5237C13.2811 31.0462 13.2811 33.5006 14.7895 35.0231L16.8717 37.125H5.16797V27.075H17.2186L14.7905 29.5237Z" stroke="var(--tw-badge-color)" stroke-width="2" stroke-miterlimit="10" stroke-linecap="round" stroke-linejoin="round"/>
  <path d="M42.8305 27.075V37.125H31.3583L33.4527 35.0475C34.9939 33.5194 34.9939 31.0266 33.4508 29.4994L31.0039 27.075H42.8305Z" stroke="var(--tw-badge-color)" stroke-width="2" stroke-miterlimit="10" stroke-linecap="round" stroke-linejoin="round"/>
  </g>
  </g>
  <defs>
  <clipPath id="clip0_782_4313">
  <rect width="48" height="48" fill="white"/>
  </clipPath>
  </defs>
</svg>