<svg width="154" height="48" viewBox="0 0 154 48" fill="none" xmlns="http://www.w3.org/2000/svg">
  <path d="M0 32.2684C0 26.5048 5.69856 24.3312 9.91917 24.3312C10.5963 24.3368 11.2673 24.4475 11.903 24.6584C11.4259 21.1062 11.1577 17.5337 11.0995 13.9559C11.0995 7.28701 12.3593 0.0175781 18.043 0.0175781C21.47 0.0175781 22.5066 3.32961 22.5066 5.51671C22.5066 10.1822 19.9028 20.3066 17.2246 20.3066C16.5948 20.3066 16.3269 19.9032 16.3269 19.2802C16.3269 18.0388 20.5277 13.7901 20.5277 5.62428C20.5277 4.18115 19.5358 2.48704 17.9735 2.48704C14.3084 2.48704 13.4553 9.00353 13.4553 15.036C13.4751 18.4365 13.6903 21.8338 14.1001 25.2141C14.1001 25.2141 17.7008 27.0651 19.02 27.0651C21.7726 27.0651 23.2803 26.2673 24.5103 25.3351C24.7905 25.0763 25.1592 24.9105 25.5567 24.8645C25.6287 24.8603 25.7009 24.8692 25.7689 24.8908C25.837 24.9123 25.8995 24.9461 25.9528 24.9901C26.006 25.034 26.0489 25.0872 26.0789 25.1465C26.1088 25.2058 26.1252 25.27 26.1271 25.3351C26.1271 27.4057 21.5345 28.9609 18.4348 28.9609C16.881 28.8946 15.3717 28.4703 14.0505 27.7284C14.0505 27.7284 13.004 37.2476 5.91678 37.2476C3.44195 37.2297 0 35.6611 0 32.2684ZM11.9972 26.8051C11.4422 26.5036 10.8048 26.3483 10.1572 26.3569C7.21123 26.3569 2.29133 27.5984 2.29133 31.883C2.29133 34.0477 5.26708 34.4376 6.14988 34.4376C11.5062 34.4286 11.9972 26.8186 11.9972 26.8051Z" fill="var(--logo-main-color-300)"/>
  <path d="M24.3008 26.4022C24.3008 25.0576 25.0646 23.6011 25.873 23.6011C25.9745 23.6084 26.0734 23.6339 26.164 23.676C26.2545 23.7182 26.3349 23.7762 26.4004 23.8467C26.4659 23.9171 26.5153 23.9987 26.5457 24.0865C26.576 24.1744 26.5868 24.2668 26.5772 24.3585C26.5772 24.8604 26.2201 25.7389 26.2201 26.4156C26.2201 26.9803 26.4731 27.415 27.0385 27.415C28.4916 27.415 29.672 24.466 30.4358 23.1574C30.5459 22.975 30.7077 22.8224 30.9047 22.7152C31.1017 22.6081 31.3268 22.5503 31.5567 22.5479C32.3799 22.5479 32.4246 23.0498 32.4246 23.4442C32.3245 23.9449 32.2599 24.4509 32.2312 24.959C32.2312 25.6896 32.4543 26.3932 33.352 26.3932C34.5374 26.3932 35.8318 24.838 36.6452 24.838C36.7825 24.8495 36.9117 24.902 37.0123 24.9872C37.1129 25.0724 37.1792 25.1855 37.2007 25.3086C37.2007 26.6218 34.954 28.0425 33.233 28.0425C31.1103 27.9753 30.8574 26.4873 30.8574 25.8016C30.8566 25.6786 30.8665 25.5557 30.8871 25.4341C30.8871 25.4341 29.6274 28.9523 27.222 28.9523C25.1885 28.9433 24.3008 27.6974 24.3008 26.4022Z" fill="var(--logo-main-color-300)"/>
  <path d="M34.7656 27.2133C34.7656 25.0755 38.8622 22.1982 40.9601 22.1982C42.1256 22.1982 42.572 22.7226 42.572 23.2649C42.5776 23.5676 42.4531 23.8606 42.2246 24.0821C41.9962 24.3036 41.6816 24.4364 41.347 24.4526C41.1496 24.4491 40.9552 24.4078 40.7766 24.3316C39.7004 24.3316 37.4289 25.7119 37.4289 26.6979C37.4289 27.2671 38.1431 27.6974 40.2112 27.6974C42.8833 27.6366 45.4631 26.8024 47.5713 25.3176C47.8639 25.0669 48.2341 24.9027 48.6326 24.847C48.7748 24.8445 48.9125 24.8923 49.0162 24.9802C49.12 25.0681 49.1817 25.1892 49.1881 25.3176C49.1881 27.4554 44.2285 29.4542 40.1815 29.4542C36.1345 29.4542 34.7656 28.4682 34.7656 27.2133Z" fill="var(--logo-main-color-300)"/>
  <path d="M49.4392 29.4812C47.6091 27.3748 46.6172 22.158 46.6172 16.8023C46.6172 9.96307 48.3233 3.10596 52.2116 3.10596C54.617 3.10596 55.8618 6.36421 55.8618 10.5412C55.8618 14.53 54.736 19.3434 52.3901 23.023C52.3901 23.023 53.9474 20.9658 55.9809 20.9658C56.408 20.9788 56.8141 21.1361 57.119 21.4066C57.4239 21.6772 57.6053 22.0412 57.6275 22.4269C57.6275 23.861 56.0702 25.6448 54.5426 25.6448C55.0088 26.4963 56.5264 27.321 58.54 27.321C60.7818 27.321 61.8729 26.4246 63.5343 25.3176C63.8123 25.0709 64.167 24.9067 64.551 24.847C64.6248 24.8415 64.6991 24.8494 64.7694 24.8702C64.8398 24.891 64.9048 24.9243 64.9607 24.9682C65.0166 25.012 65.0623 25.0655 65.095 25.1255C65.1277 25.1855 65.1468 25.2508 65.1511 25.3176C65.1511 26.8593 62.0861 29.1451 58.5698 29.1451C55.8618 29.1451 54.1062 28.5893 52.7472 26.3484C52.3682 26.9283 52.0622 27.5446 51.8347 28.1859C51.6771 28.5957 51.3721 28.9459 50.9685 29.1807C50.5648 29.4155 50.0858 29.5213 49.6078 29.4812H49.4392ZM53.7441 10.6577C53.7441 7.72218 53.1192 5.50371 51.8297 5.50371C50.0343 5.50371 48.7796 11.8051 48.7796 17.6583C48.7441 19.7818 48.9552 21.9028 49.4094 23.9865C52.2513 21.4543 53.7441 15.1933 53.7441 10.6533V10.6577ZM51.547 24.2016C51.1343 24.7514 50.6749 25.2713 50.1732 25.7568L50.3071 26.205C50.6493 25.6089 51.0808 24.9949 51.547 24.1972V24.2016ZM55.5147 22.9736C54.2153 22.9736 53.8582 24.5512 53.8582 24.5512H53.9326C54.5525 24.5602 55.5097 23.1574 55.5097 22.9692L55.5147 22.9736Z" fill="var(--logo-main-color-300)"/>
  <path d="M64.8163 43.4195C64.8163 34.1871 70.6686 29.4543 70.6686 29.4543L69.6767 25.2101C69.6767 25.2101 69.6023 30.6868 66.4132 30.6868C65.0246 30.6868 63.4375 28.4011 63.4375 26.3754C63.4375 25.6717 63.5119 24.632 64.3054 24.632C66.2049 24.632 65.2973 28.3339 66.5025 28.6297C68.7492 28.6297 67.7623 21.6157 69.9742 21.6157C71.2885 21.6157 72.578 28.065 72.578 28.065C73.6509 27.0958 74.7799 26.1787 75.9604 25.3177C76.2508 25.0641 76.6221 24.8994 77.0218 24.8471C77.1614 24.851 77.2946 24.9011 77.396 24.9878C77.4975 25.0746 77.5602 25.1919 77.5723 25.3177C77.5323 25.6713 77.4056 26.0125 77.2014 26.3164C76.9973 26.6203 76.7207 26.8793 76.3919 27.0745C75.1564 27.8277 74.043 28.7327 73.0839 29.7636C73.6627 32.1724 73.9783 34.6267 74.0262 37.0913C74.0262 40.6767 72.6226 47.9999 68.6897 47.9999C66.1504 48.0178 64.8163 45.8397 64.8163 43.4195ZM72.0424 37.4722C71.9532 35.4132 71.6678 33.3649 71.1893 31.3501C71.1893 31.3501 66.6265 35.6885 66.6265 43.4061C66.6265 45.0285 67.4796 45.7994 68.4516 45.7994C71.2042 45.7994 72.0424 39.9731 72.0424 37.4722Z" fill="var(--logo-main-color-300)"/>
  <path d="M83.5508 21.4139C83.5508 11.8946 89.1601 0 94.1097 0C99.0594 0 100.185 6.33722 100.185 7.61004C100.185 8.112 99.8281 8.83805 99.1933 8.83805C98.5585 8.83805 97.7699 8.54225 97.7699 7.81172C97.7699 6.32377 96.5151 3.01175 94.1048 3.01175C90.9802 3.01175 85.9959 13.0016 85.9959 21.0195C86.0256 26.2497 88.1384 29.9562 93.2666 29.9562C97.8294 29.9562 101.048 26.8189 102.888 25.3175C103.16 25.0588 103.527 24.8993 103.92 24.8693C103.992 24.8614 104.065 24.8678 104.134 24.8882C104.203 24.9085 104.266 24.9423 104.319 24.9872C104.372 25.0321 104.414 25.087 104.441 25.1479C104.468 25.2089 104.479 25.2744 104.475 25.3399C104.475 27.1326 97.9187 31.8564 93.4501 31.8564C86.1546 31.8833 83.5508 27.6705 83.5508 21.4139Z" fill="var(--logo-main-color-400)"/>
  <path d="M102.758 26.4022C102.758 25.0576 103.517 23.6011 104.325 23.6011C104.427 23.6084 104.525 23.6339 104.616 23.676C104.707 23.7182 104.787 23.7762 104.852 23.8467C104.918 23.9171 104.967 23.9987 104.998 24.0865C105.028 24.1744 105.039 24.2668 105.029 24.3585C105.029 24.8604 104.672 25.7389 104.672 26.4156C104.672 26.9803 104.925 27.415 105.496 27.415C106.944 27.415 108.124 24.466 108.888 23.1574C108.999 22.9746 109.162 22.8218 109.359 22.7147C109.557 22.6076 109.783 22.55 110.014 22.5479C110.832 22.5479 110.877 23.0498 110.877 23.4442C110.777 23.9449 110.712 24.4509 110.683 24.959C110.683 25.6896 110.911 26.3932 111.804 26.3932C112.989 26.3932 114.284 24.838 115.097 24.838C115.235 24.8495 115.364 24.902 115.464 24.9872C115.565 25.0724 115.631 25.1855 115.653 25.3086C115.653 26.6218 113.406 28.0425 111.685 28.0425C109.562 27.9753 109.309 26.4873 109.309 25.8016C109.309 25.6786 109.319 25.5557 109.339 25.4341C109.339 25.4341 108.079 28.9523 105.674 28.9523C103.626 28.9433 102.758 27.6974 102.758 26.4022Z" fill="var(--logo-main-color-400)"/>
  <path d="M113.453 29.2794C113.453 26.3886 113.994 24.2105 115.437 24.2105C115.933 24.2105 116.111 24.4256 116.111 24.7797C116.111 26.0346 115.184 26.4693 115.184 29.1315C115.197 30.0544 115.282 30.9755 115.437 31.8878C115.65 29.0777 115.556 22.6284 119.732 22.6284C121.765 22.6284 122.38 24.1164 122.38 26.4962C125.148 26.3483 125.674 24.8872 126.646 24.8872C127.142 24.8872 127.196 25.0082 127.196 25.3578C127.196 26.1825 126.298 28.1051 121.994 28.2261C121.096 29.9696 119.777 30.5387 118.656 30.5387C118.088 30.5447 117.532 30.3878 117.069 30.0906C116.935 31.2289 116.845 33.5908 116.845 35.3522C116.845 37.1135 116.92 37.0821 116.92 37.8933C116.92 38.9331 116.741 40.0939 115.695 40.0939C114.877 40.0939 113.453 33.9314 113.453 29.2794ZM119.32 26.1421C119.785 26.1434 120.248 26.2037 120.694 26.3214C120.664 25.3713 120.367 24.5287 119.424 24.5287C118.824 24.5287 118.304 25.2592 117.882 26.4514C118.327 26.2446 118.82 26.1385 119.32 26.1421ZM119.32 27.9124C118.676 28.0648 118.467 28.0379 118.423 28.6026L119.32 27.9124Z" fill="var(--logo-main-color-400)"/>
  <path d="M125.09 29.2794C125.09 26.3886 125.625 24.2105 127.074 24.2105C127.57 24.2105 127.748 24.4256 127.748 24.7797C127.748 26.0346 126.821 26.4693 126.821 29.1315C126.834 30.0544 126.918 30.9755 127.074 31.8878C127.282 29.0777 127.193 22.6284 131.369 22.6284C133.402 22.6284 134.017 24.1164 134.017 26.4962C136.785 26.3483 137.305 24.8872 138.277 24.8872C138.773 24.8872 138.833 25.0082 138.833 25.3578C138.833 26.1825 137.935 28.1051 133.625 28.2261C132.728 29.9696 131.413 30.5387 130.287 30.5387C129.721 30.545 129.167 30.388 128.705 30.0906C128.571 31.2289 128.477 33.5908 128.477 35.3522C128.477 37.1135 128.557 37.0821 128.557 37.8933C128.557 38.9331 128.373 40.0939 127.327 40.0939C126.508 40.0939 125.09 33.9314 125.09 29.2794ZM130.952 26.1421C131.419 26.1433 131.883 26.2037 132.331 26.3214C132.301 25.3713 131.999 24.5287 131.056 24.5287C130.461 24.5287 129.935 25.2592 129.519 26.4514C129.956 26.2475 130.44 26.1414 130.932 26.1421H130.952ZM130.952 27.9124C130.312 28.0648 130.099 28.0379 130.054 28.6026L130.952 27.9124Z" fill="var(--logo-main-color-400)"/>
  <path d="M144.881 24.6721C144.881 24.7528 142.897 28.1724 139.376 28.1724C137.699 28.1724 137 27.4553 137 26.5097C137 24.717 139.48 22.1713 142.58 22.1713C143.224 22.1713 143.537 22.4806 143.537 22.9243C143.537 23.368 143.071 23.3724 142.545 23.3724C140.913 23.3724 139.867 25.2234 139.867 25.7388C139.867 25.927 140.03 26.0481 140.328 26.0481C141.573 26.0481 143.532 24.3584 144.682 22.6553C144.682 22.6553 145.089 21.5483 146.017 21.5483C146.138 21.533 146.261 21.5435 146.377 21.5791C146.493 21.6147 146.598 21.6743 146.684 21.7531C146.77 21.832 146.834 21.9279 146.871 22.0332C146.909 22.1385 146.918 22.2503 146.899 22.3595V22.8839C146.899 24.1702 147.242 26.4693 149.349 26.4693C150.482 26.4166 151.56 26.0149 152.404 25.331C152.672 25.0569 153.048 24.888 153.451 24.8604C153.521 24.8586 153.591 24.8693 153.657 24.892C153.723 24.9147 153.783 24.9489 153.834 24.9926C153.885 25.0363 153.926 25.0887 153.955 25.1467C153.984 25.2048 154 25.2674 154.001 25.331C154.001 27.0744 150.817 28.2127 149.245 28.2127C145.183 28.1993 144.881 24.6721 144.881 24.6721Z" fill="var(--logo-main-color-400)"/>
</svg>