<svg width="48" height="36" viewBox="0 0 48 36" fill="none" xmlns="http://www.w3.org/2000/svg">
  <path d="M36.8782 3.55081H38.5417C43.2293 3.55081 47.064 7.38556 47.064 12.0733V13.2586C47.064 17.9465 43.2293 21.7812 38.5417 21.7812H35.5547" stroke="var(--tw-badge-color)" stroke-width="2" stroke-miterlimit="10" stroke-linecap="round" stroke-linejoin="round"/>
  <path d="M36.7188 17.8398H38.5417C41.0557 17.8398 43.1258 15.7697 43.1258 13.2557V12.0704C43.1258 9.55647 41.0557 7.48628 38.5417 7.48628H36.8782" stroke="var(--tw-badge-color)" stroke-width="2" stroke-miterlimit="10" stroke-linecap="round" stroke-linejoin="round"/>
  <path d="M18.5271 30.2109H0.9375V26.222H44.5379V30.2109H26.9484" stroke="var(--tw-badge-color)" stroke-width="2" stroke-miterlimit="10" stroke-linecap="round" stroke-linejoin="round"/>
  <path d="M11.6285 26.2188C8.40244 24.1273 6.25781 20.4972 6.25781 16.3887V3.26856C6.25781 2.46072 6.91687 1.80166 7.72472 1.80166H35.4072C36.2151 1.80166 36.8767 2.46072 36.8767 3.26856V16.3887C36.8767 20.4972 34.7295 24.1273 31.5035 26.2188" stroke="var(--tw-badge-color)" stroke-width="2" stroke-miterlimit="10" stroke-linecap="round" stroke-linejoin="round"/>
  <path d="M38.3552 30.2091L36.5828 34.1953H8.88963L7.11719 30.2091" stroke="var(--tw-badge-color)" stroke-width="2" stroke-miterlimit="10" stroke-linecap="round" stroke-linejoin="round"/>
  <path d="M14.4933 7.48828H6.25781M36.8768 7.48828H28.6414" stroke="var(--tw-badge-color)" stroke-width="2" stroke-miterlimit="10" stroke-linecap="round" stroke-linejoin="round"/>
  <path d="M14.4922 1.80253H28.6403V17.5508C28.6403 18.4438 27.9095 19.1719 27.0192 19.1719H16.1132C15.2203 19.1719 14.4922 18.4438 14.4922 17.5508V1.80253Z" stroke="var(--tw-badge-color)" stroke-width="2" stroke-miterlimit="10" stroke-linecap="round" stroke-linejoin="round"/>
  <path d="M21.5664 19.1719V7.03247" stroke="var(--tw-badge-color)" stroke-width="2" stroke-miterlimit="10" stroke-linecap="round" stroke-linejoin="round"/>
  <path d="M24.5113 7.03125H18.625" stroke="var(--tw-badge-color)" stroke-width="2" stroke-miterlimit="10" stroke-linecap="round" stroke-linejoin="round"/>
  <path d="M22.7409 30.2109H22.7383" stroke="var(--tw-badge-color)" stroke-width="2" stroke-miterlimit="10" stroke-linecap="round" stroke-linejoin="round"/>
</svg>